<svg width="600" height="600" viewBox="0 0 600 600" fill="none" xmlns="http://www.w3.org/2000/svg">
<g clip-path="url(#clip0_16781_917)">
<mask id="mask0_16781_917" style="mask-type:luminance" maskUnits="userSpaceOnUse" x="22" y="88" width="556" height="406">
<path d="M577.51 88.3662H22.2344V493.553H577.51V88.3662Z" fill="white"/>
</mask>
<g mask="url(#mask0_16781_917)">
<path d="M117.27 308.865C117.174 308.589 117.079 308.312 116.983 308.025C108.277 281.61 130.488 248.396 171.621 219.15" stroke="#251B9F" stroke-width="1.06424" stroke-linecap="round" stroke-linejoin="round"/>
<path d="M174.741 241.19C175.614 237.295 175.624 233.442 174.762 229.739C174.219 227.419 173.347 225.248 172.187 223.236L169.09 217.936C169.09 217.915 169.069 217.904 169.058 217.883L169.026 217.819C166.749 213.999 163.396 210.838 159.161 208.603C159.054 208.55 158.948 208.496 158.841 208.443C158.692 208.369 158.543 208.294 158.394 208.22C151.519 204.857 143.229 204.218 134.97 206.432C126.542 208.688 119.124 213.658 114.09 220.405C114.016 220.512 113.941 220.607 113.856 220.714C111.217 224.332 109.429 228.206 108.524 232.24C107.652 236.135 107.641 239.987 108.503 243.691C109.067 246.138 110.014 248.427 111.27 250.523L114.144 255.44C114.165 255.482 114.186 255.514 114.208 255.557L114.271 255.663C116.549 259.441 119.891 262.592 124.084 264.795C124.19 264.848 124.296 264.901 124.403 264.965C124.552 265.039 124.701 265.114 124.85 265.188C131.725 268.551 140.015 269.19 148.273 266.976C156.702 264.72 164.12 259.75 169.154 253.003L169.175 252.971C169.249 252.875 169.313 252.779 169.388 252.684C172.027 249.065 173.815 245.191 174.72 241.158L174.741 241.19Z" fill="#FF491B" stroke="#FF491B" stroke-width="1.06424" stroke-linecap="round" stroke-linejoin="round"/>
<path d="M158.405 208.23C151.53 204.867 143.24 204.229 134.981 206.443C126.553 208.699 119.135 213.669 114.101 220.416C114.027 220.522 113.952 220.618 113.867 220.725C111.228 224.343 109.44 228.217 108.524 232.25C107.652 236.145 107.641 239.998 108.503 243.701C110.089 250.555 114.559 256.217 121.072 259.644C121.178 259.697 121.285 259.75 121.391 259.814C121.54 259.889 121.689 259.963 121.838 260.038C128.713 263.4 137.003 264.039 145.262 261.825C153.69 259.569 161.108 254.599 166.142 247.852L166.163 247.82C166.238 247.724 166.302 247.629 166.376 247.533C169.015 243.914 170.803 240.041 171.708 236.007C172.581 232.112 172.591 228.259 171.729 224.556C170.143 217.702 165.674 212.04 159.161 208.614C159.054 208.56 158.948 208.507 158.841 208.454C158.692 208.379 158.543 208.305 158.394 208.23H158.405Z" fill="#FFEDE8" stroke="#FF491B" stroke-width="1.06424" stroke-miterlimit="10"/>
<path d="M154.688 212.935C149.165 210.232 142.503 209.721 135.872 211.498C129.104 213.307 123.144 217.298 119.089 222.726C119.025 222.811 118.962 222.896 118.908 222.971C116.79 225.876 115.354 228.994 114.619 232.229C113.917 235.358 113.906 238.455 114.598 241.424C115.875 246.927 119.462 251.471 124.698 254.238C124.783 254.28 124.868 254.323 124.953 254.366C125.07 254.429 125.187 254.483 125.315 254.546C130.839 257.25 137.501 257.76 144.131 255.983C150.899 254.174 156.859 250.183 160.914 244.755C160.978 244.67 161.042 244.585 161.095 244.511C163.213 241.605 164.649 238.487 165.384 235.252C166.086 232.123 166.097 229.026 165.405 226.057C164.128 220.555 160.541 216.01 155.305 213.243C155.22 213.201 155.135 213.158 155.05 213.116C154.933 213.052 154.816 212.999 154.688 212.935Z" fill="#FFEDE8" stroke="#FF491B" stroke-width="1.06424" stroke-miterlimit="10"/>
<path d="M115.396 243.222C114.705 240.253 114.715 237.156 115.418 234.027C116.141 230.781 117.589 227.674 119.706 224.768C119.77 224.683 119.824 224.598 119.887 224.524C123.932 219.096 129.891 215.105 136.671 213.296C143.301 211.519 149.973 212.029 155.486 214.733C155.603 214.786 155.731 214.85 155.848 214.914C155.933 214.956 156.018 214.999 156.103 215.041C159.871 217.031 162.787 219.947 164.596 223.481C162.915 219.149 159.69 215.573 155.305 213.264C155.22 213.221 155.135 213.179 155.05 213.136C154.933 213.072 154.816 213.019 154.688 212.955C149.165 210.252 142.503 209.741 135.872 211.519C129.104 213.328 123.144 217.319 119.089 222.746C119.025 222.831 118.962 222.917 118.908 222.991C116.79 225.896 115.354 229.015 114.619 232.25C113.917 235.379 113.906 238.476 114.598 241.445C114.96 242.988 115.503 244.446 116.205 245.819C115.875 244.978 115.609 244.116 115.396 243.233V243.222Z" fill="#FF491B" stroke="#FF491B" stroke-width="1.06424" stroke-miterlimit="10"/>
<path d="M151.218 232.985C151.058 232.251 150.782 231.559 150.42 230.921L149.185 228.846C148.536 227.718 147.589 226.749 146.397 226.047L146.365 226.025L134.818 241.946L134.797 241.978L135.999 243.968L136.042 243.99C138.192 244.926 140.746 245.043 143.247 244.309C145.748 243.575 147.961 242.063 149.462 240.052C149.473 240.031 149.494 240.009 149.505 239.988C149.515 239.967 149.537 239.946 149.547 239.924C151.122 237.753 151.718 235.284 151.229 232.964L151.218 232.985Z" fill="#FF491B" stroke="#FF491B" stroke-width="1.06424" stroke-linecap="round" stroke-linejoin="round"/>
<path d="M151.635 218.778L151.571 218.746C151.571 218.746 151.464 218.693 151.379 218.64C151.305 218.608 151.23 218.565 151.156 218.533C147.069 216.533 142.131 216.16 137.225 217.48C132.234 218.821 127.849 221.758 124.869 225.76C124.837 225.802 124.815 225.834 124.784 225.877C124.752 225.919 124.73 225.951 124.698 225.994C123.145 228.133 122.091 230.432 121.559 232.826C121.048 235.135 121.048 237.424 121.559 239.616C121.91 241.138 122.538 242.553 123.315 243.873L124.645 246.033C125.986 248.098 127.87 249.833 130.211 251.067C130.254 251.088 130.286 251.11 130.329 251.131C130.371 251.152 130.403 251.174 130.446 251.195H130.478C130.478 251.195 130.584 251.259 130.637 251.28L130.712 251.312L135.958 244.075L135.98 244.043L134.777 242.053L134.734 242.032C134.66 242 134.585 241.968 134.511 241.925C134.468 241.904 134.426 241.883 134.383 241.861C133.447 241.372 132.659 240.723 132.031 239.978C131.893 239.637 131.776 239.286 131.691 238.914C131.137 236.551 131.723 234.029 133.319 231.804L133.425 231.666C134.99 229.57 137.289 228.026 139.907 227.324C142.525 226.622 145.175 226.834 147.346 227.941C147.41 227.973 147.473 228.016 147.527 228.048L147.569 228.069L152.816 220.832L152.837 220.8L151.635 218.81V218.778Z" fill="#FF491B" stroke="#FF491B" stroke-width="1.06424" stroke-linecap="round" stroke-linejoin="round"/>
<path d="M134.788 242L134.809 241.968L146.356 226.047L146.388 226.068C148.293 227.175 149.57 228.931 150.007 231.006C150.496 233.326 149.9 235.795 148.325 237.966C148.314 237.988 148.293 238.009 148.283 238.03C148.272 238.051 148.251 238.073 148.24 238.094C146.739 240.105 144.526 241.627 142.025 242.351C139.524 243.075 136.97 242.968 134.82 242.032L134.777 242.01L134.788 242Z" fill="white" stroke="#FF491B" stroke-width="1.06424" stroke-linecap="round" stroke-linejoin="round"/>
<path d="M129.286 249.183C129.286 249.183 129.264 249.172 129.254 249.162C129.211 249.141 129.179 249.119 129.137 249.098C129.094 249.077 129.062 249.055 129.02 249.034C125.156 247.001 122.506 243.638 121.559 239.584C121.048 237.391 121.048 235.103 121.559 232.794C122.091 230.399 123.145 228.101 124.698 225.961C124.73 225.919 124.752 225.887 124.784 225.844C124.815 225.802 124.837 225.77 124.869 225.727C127.849 221.726 132.234 218.789 137.225 217.448C142.131 216.128 147.069 216.5 151.156 218.501C151.23 218.533 151.305 218.576 151.379 218.608C151.464 218.65 151.528 218.682 151.571 218.714L151.635 218.746L151.613 218.778L146.367 226.015L146.324 225.993C146.271 225.961 146.207 225.919 146.143 225.887C143.972 224.78 141.333 224.567 138.704 225.27C136.086 225.972 133.787 227.515 132.223 229.612L132.116 229.75C130.509 231.974 129.935 234.497 130.488 236.859C130.988 238.977 132.372 240.733 134.394 241.797C134.436 241.819 134.479 241.84 134.522 241.861C134.596 241.904 134.671 241.936 134.745 241.968L134.788 241.989L134.766 242.021L129.52 249.258L129.445 249.226C129.445 249.226 129.339 249.172 129.286 249.151V249.183Z" fill="white" stroke="#FF491B" stroke-width="1.06424" stroke-linecap="round" stroke-linejoin="round"/>
<path d="M128.754 263.071L130.999 266.605" stroke="white" stroke-width="1.06424" stroke-linecap="round" stroke-linejoin="round"/>
<path d="M130.934 263.71L133.179 267.243" stroke="white" stroke-width="1.06424" stroke-linecap="round" stroke-linejoin="round"/>
<path d="M171.828 238.083L174.074 241.616" stroke="white" stroke-width="1.06424" stroke-linecap="round" stroke-linejoin="round"/>
<path d="M258.879 138.492C398.464 92.4743 527.971 104.745 548.128 165.906" stroke="#251B9F" stroke-width="1.06424" stroke-linecap="round" stroke-linejoin="round"/>
<path d="M54.1602 461.625H545.582" stroke="#FFEDE8" stroke-width="63.8542" stroke-linecap="round" stroke-linejoin="round"/>
<path d="M385.893 437.755C386.776 442.171 387.776 448.674 388.106 452.931C388.926 458.039 324.305 458.773 323.007 456.954C322.688 456.507 327.679 446.183 328.307 445.917C339.087 441.426 355.445 435.552 355.445 435.552" fill="#FFEDE8"/>
<path d="M385.893 437.755C386.776 442.171 387.776 448.674 388.106 452.931C388.926 458.039 324.305 458.773 323.007 456.954C322.688 456.507 327.679 446.183 328.307 445.917C339.087 441.426 355.445 435.552 355.445 435.552" stroke="#FF491B" stroke-width="1.06424" stroke-linecap="round" stroke-linejoin="round"/>
<path d="M391.176 258.06L352.235 265.946C349.809 320.328 350.958 422.771 350.958 422.771C347.617 422.835 345.03 423.612 344.019 425.868C342.604 429.029 343.679 434.435 344.913 439.097C345.424 441.034 387.398 450.442 387.451 448.441L393.741 305.407L403.872 303.3" fill="#FFEDE8"/>
<path d="M391.176 258.06L352.235 265.946C349.809 320.328 350.958 422.771 350.958 422.771C347.617 422.835 345.03 423.612 344.019 425.868C342.604 429.029 343.679 434.435 344.913 439.097C345.424 441.034 387.398 450.442 387.451 448.441L393.741 305.407L403.872 303.3" stroke="#FF491B" stroke-width="1.06424" stroke-linecap="round" stroke-linejoin="round"/>
<path d="M388.104 452.931C388.636 457.188 388.668 458.316 388.902 461.977C373.045 462.275 331.167 462.658 313.894 461.977C313.894 459.987 313.745 458.114 313.894 456.177C314.043 454.24 315.044 452.612 316.576 451.537C319.226 449.685 323.962 447.578 328.293 445.929C331.327 447.685 334.115 451.814 336.414 453.602C352.154 454.602 385.443 453.91 388.093 452.942L388.104 452.931Z" fill="#FFEDE8" stroke="#FF491B" stroke-width="1.06424" stroke-linecap="round" stroke-linejoin="round"/>
<path d="M347.816 427.293L371.836 438.819" stroke="#FF491B" stroke-width="1.06424" stroke-linecap="round" stroke-linejoin="round"/>
<path d="M401.507 437.755C400.623 442.171 399.623 448.674 399.293 452.931C398.473 458.039 463.094 458.773 464.392 456.954C464.711 456.507 459.72 446.183 459.092 445.917C448.312 441.426 431.954 435.552 431.954 435.552" fill="#FFEDE8"/>
<path d="M401.507 437.755C400.623 442.171 399.623 448.674 399.293 452.931C398.473 458.039 463.094 458.773 464.392 456.954C464.711 456.507 459.72 446.183 459.092 445.917C448.312 441.426 431.954 435.552 431.954 435.552" stroke="#FF491B" stroke-width="1.06424" stroke-linecap="round" stroke-linejoin="round"/>
<path d="M399.294 452.931C398.762 457.188 398.73 458.316 398.496 461.977C414.353 462.275 456.231 462.658 473.503 461.977C473.503 459.987 473.652 458.114 473.503 456.177C473.354 454.304 472.354 452.612 470.822 451.537C468.172 449.685 463.436 447.578 459.104 445.929C456.071 447.685 453.283 451.814 450.984 453.602C435.244 454.602 401.955 453.91 399.305 452.942L399.294 452.931Z" fill="#FFEDE8" stroke="#FF491B" stroke-width="1.06424" stroke-linecap="round" stroke-linejoin="round"/>
<path d="M396.165 258.06L435.106 265.946C437.532 320.328 436.383 422.771 436.383 422.771C439.724 422.835 442.31 423.612 443.321 425.868C444.737 429.029 443.662 434.435 442.427 439.097C441.917 441.034 399.943 450.442 399.89 448.441L393.6 305.407L383.469 303.3" fill="#FFEDE8"/>
<path d="M396.165 258.06L435.106 265.946C437.532 320.328 436.383 422.771 436.383 422.771C439.724 422.835 442.31 423.612 443.321 425.868C444.737 429.029 443.662 434.435 442.427 439.097C441.917 441.034 399.943 450.442 399.89 448.441L393.6 305.407L383.469 303.3" stroke="#FF491B" stroke-width="1.06424" stroke-linecap="round" stroke-linejoin="round"/>
<path d="M439.587 427.293L415.578 438.819" stroke="#FF491B" stroke-width="1.06424" stroke-linecap="round" stroke-linejoin="round"/>
<path d="M436.457 421.632L436.478 428.613" stroke="#FF491B" stroke-width="1.06424" stroke-linecap="round" stroke-linejoin="round"/>
<path d="M350.958 421.632L350.926 428.613" stroke="#FF491B" stroke-width="1.06424" stroke-linecap="round" stroke-linejoin="round"/>
<path d="M426.243 138.289C426.243 157.85 410.748 160.191 393.305 160.191C375.862 160.191 360.367 157.85 360.367 138.289C360.367 118.728 374.734 97.4648 393.305 97.4648C411.876 97.4648 426.243 118.728 426.243 138.289Z" fill="#FFEDE8" stroke="#FF491B" stroke-width="1.06424" stroke-linecap="round" stroke-linejoin="round"/>
<path d="M436.503 271.565C440.281 271.384 438.919 268.468 439.323 264.711C443.602 224.589 443.836 191.204 432.704 178.412C421.54 165.577 406.162 170.175 405.161 151.742H381.418C380.418 170.175 364.082 164.79 353.876 178.412C340.317 196.515 346.458 227.005 348.15 264.157C348.331 268.159 347.075 271.394 351.077 271.575C371.861 272.544 415.921 272.565 436.492 271.565H436.503Z" fill="#FFEDE8" stroke="#FF491B" stroke-width="1.06424" stroke-linecap="round" stroke-linejoin="round"/>
<path d="M331.223 287.666C331.223 287.666 335.277 312.409 342.791 324.191C345.132 327.852 350.783 326.298 350.858 321.956C351.156 309.813 351.273 303.289 351.326 293.924" fill="#FFEDE8"/>
<path d="M331.223 287.666C331.223 287.666 335.277 312.409 342.791 324.191C345.132 327.852 350.783 326.298 350.858 321.956C351.156 309.813 351.273 303.289 351.326 293.924" stroke="#FF491B" stroke-width="1.06424" stroke-linecap="round" stroke-linejoin="round"/>
<path d="M359.94 172.611C343.721 183.988 329.119 206.443 328.821 276.023C328.8 281.057 324.735 284.984 327.225 289.337C330.024 294.243 341.635 294.86 351.309 293.923C351.66 266.221 354.161 224.237 359.184 191.182" fill="#FFEDE8"/>
<path d="M359.94 172.611C343.721 183.988 329.119 206.443 328.821 276.023C328.8 281.057 324.735 284.984 327.225 289.337C330.024 294.243 341.635 294.86 351.309 293.923C351.66 266.221 354.161 224.237 359.184 191.182" stroke="#FF491B" stroke-width="1.06424" stroke-linecap="round" stroke-linejoin="round"/>
<path d="M351.038 313.814C350.953 316.113 346.537 317.848 344.578 313.953C343.557 311.92 343.269 308.514 342.727 303.268" stroke="#FF491B" stroke-width="1.06424" stroke-linecap="round" stroke-linejoin="round"/>
<path d="M329.181 193.013C330.725 194.162 330.714 200.292 326.723 206.465C325.052 209.062 323.584 212.127 320.997 213.83L311.451 205.986C305.587 206.231 301.777 201.601 301.777 196.142V152.317C301.777 150.422 303.289 148.879 305.172 148.837C306.769 148.805 308.195 149.858 308.61 151.412L317.634 181.253C318.262 183.318 319.944 186.181 321.977 187.692L329.213 193.024H329.171L329.181 193.013Z" fill="#FFEDE8" stroke="#FF491B" stroke-width="1.06424" stroke-linecap="round" stroke-linejoin="round"/>
<path d="M309.408 179.678L306.492 166.375C306.236 165.236 305.204 164.438 304.034 164.502C302.767 164.565 301.777 165.619 301.777 166.886V173.941" fill="#FFEDE8"/>
<path d="M309.408 179.678L306.492 166.375C306.236 165.236 305.204 164.438 304.034 164.502C302.767 164.565 301.777 165.619 301.777 166.886V173.941" stroke="#FF491B" stroke-width="1.06424" stroke-linecap="round" stroke-linejoin="round"/>
<path d="M312.356 175.633L307.726 159.361C307.354 158.052 306.162 157.158 304.81 157.158C303.14 157.158 301.777 158.52 301.777 160.191V169.035" stroke="#FF491B" stroke-width="1.06424" stroke-linecap="round" stroke-linejoin="round"/>
<path d="M425.199 216.319C406.649 229.261 382.629 249.619 364.601 249.619C346.573 249.619 321.883 218.256 321.883 218.256C318.946 215.032 309.665 214.851 311.453 205.975C317.615 203.921 325.469 194.545 324.841 189.724C332.493 187.372 333.813 196.567 337.133 199.026C337.133 199.026 350.447 208.668 361.93 216.884H362.356C378.628 204.804 391.516 194.449 406.841 181.977" fill="#FFEDE8"/>
<path d="M425.199 216.319C406.649 229.261 382.629 249.619 364.601 249.619C346.573 249.619 321.883 218.256 321.883 218.256C318.946 215.032 309.665 214.851 311.453 205.975C317.615 203.921 325.469 194.545 324.841 189.724C332.493 187.372 333.813 196.567 337.133 199.026C337.133 199.026 350.447 208.668 361.93 216.884H362.356C378.628 204.804 391.516 194.449 406.841 181.977" stroke="#FF491B" stroke-width="1.06424" stroke-linecap="round" stroke-linejoin="round"/>
<path d="M397.154 119.707L393.227 106.298L389.3 119.707H371.463C370.889 122.208 370.559 124.911 370.559 127.795C370.559 144.089 380.392 155.423 393.227 155.423C406.062 155.423 415.895 144.089 415.895 127.795C415.895 124.911 415.576 122.219 414.99 119.707H397.154Z" fill="#FFEDE8" stroke="#FF491B" stroke-width="1.06424" stroke-linecap="round" stroke-linejoin="round"/>
<path d="M389.512 142.578C390.682 143.153 391.991 143.451 393.375 143.451C394.641 143.451 395.833 143.195 396.929 142.716" stroke="#FF491B" stroke-width="1.06424" stroke-linecap="round" stroke-linejoin="round"/>
<path d="M395.418 135.63C395.12 136.385 394.311 136.918 393.204 136.918C392.098 136.918 391.257 136.396 390.938 135.63" fill="#FFEDE8"/>
<path d="M395.418 135.63C395.12 136.385 394.311 136.918 393.204 136.918C392.098 136.918 391.257 136.396 390.938 135.63" stroke="#FF491B" stroke-width="1.06424" stroke-linecap="round" stroke-linejoin="round"/>
<path d="M410.767 164.992C401.125 169.27 385.492 169.132 375.254 165.141L410.767 164.992Z" fill="#FFEDE8"/>
<path d="M410.767 164.992C401.125 169.27 385.492 169.132 375.254 165.141" stroke="#FF491B" stroke-width="1.06424" stroke-linecap="round" stroke-linejoin="round"/>
<path d="M385.106 153.998C384.638 162.288 381.988 166.439 381.988 166.439L385.106 153.998Z" fill="#FFEDE8"/>
<path d="M385.106 153.998C384.638 162.288 381.988 166.439 381.988 166.439" stroke="#FF491B" stroke-width="1.06424" stroke-linecap="round" stroke-linejoin="round"/>
<path d="M401.328 154.093C401.839 162.702 404.521 166.523 404.521 166.523L401.328 154.093Z" fill="#FFEDE8"/>
<path d="M401.328 154.093C401.839 162.702 404.521 166.523 404.521 166.523" stroke="#FF491B" stroke-width="1.06424" stroke-linecap="round" stroke-linejoin="round"/>
<path d="M396.567 155.392C396.525 163.373 398.27 167.811 398.27 167.811L396.567 155.392Z" fill="#FFEDE8"/>
<path d="M396.567 155.392C396.525 163.373 398.27 167.811 398.27 167.811" stroke="#FF491B" stroke-width="1.06424" stroke-linecap="round" stroke-linejoin="round"/>
<path d="M390.427 155.392C390.299 163.501 388.66 167.833 388.66 167.833L390.427 155.392Z" fill="#FFEDE8"/>
<path d="M390.427 155.392C390.299 163.501 388.66 167.833 388.66 167.833" stroke="#FF491B" stroke-width="1.06424" stroke-linecap="round" stroke-linejoin="round"/>
<path d="M401.901 128.797C402.465 128.797 402.922 128.34 402.922 127.776C402.922 127.211 402.465 126.754 401.901 126.754C401.337 126.754 400.879 127.211 400.879 127.776C400.879 128.34 401.337 128.797 401.901 128.797Z" fill="#FF491B" stroke="#FF491B" stroke-width="1.06424" stroke-linecap="round" stroke-linejoin="round"/>
<path d="M384.537 128.797C385.101 128.797 385.559 128.34 385.559 127.776C385.559 127.211 385.101 126.754 384.537 126.754C383.973 126.754 383.516 127.211 383.516 127.776C383.516 128.34 383.973 128.797 384.537 128.797Z" fill="#FF491B" stroke="#FF491B" stroke-width="1.06424" stroke-linecap="round" stroke-linejoin="round"/>
<path d="M274.232 192.875C272.689 194.035 274.839 199.846 278.83 206.029C280.501 208.625 282.257 210.882 283.832 212.553L291.984 205.858C297.859 206.103 301.679 201.463 301.679 196.004V152.125C301.679 150.231 300.168 148.688 298.274 148.645C296.667 148.613 295.251 149.667 294.836 151.221L285.801 181.104C285.173 183.169 283.491 186.032 281.448 187.554L274.201 192.886H274.243L274.232 192.875Z" fill="#DBD7FA" stroke="#251B9F" stroke-width="1.06424" stroke-linecap="round" stroke-linejoin="round"/>
<path d="M294.031 179.518L296.947 166.194C297.203 165.055 298.235 164.257 299.406 164.321C300.672 164.385 301.662 165.438 301.662 166.705V173.771" fill="#DBD7FA"/>
<path d="M294.031 179.518L296.947 166.194C297.203 165.055 298.235 164.257 299.406 164.321C300.672 164.385 301.662 165.438 301.662 166.705V173.771" stroke="#251B9F" stroke-width="1.06424" stroke-linecap="round" stroke-linejoin="round"/>
<path d="M291.078 175.474L295.708 159.181C296.08 157.871 297.272 156.978 298.634 156.978C300.316 156.978 301.678 158.34 301.678 160.021V168.876" stroke="#251B9F" stroke-width="1.06424" stroke-linecap="round" stroke-linejoin="round"/>
<path d="M205.17 412.309L203.733 458.88C203.648 460.828 202.126 462.361 200.274 462.361H133.791C132.004 462.361 130.705 460.583 131.163 458.763L132.419 453.74C133.568 449.132 136.75 445.397 140.964 443.672L158.609 436.478C166.272 433.349 171.838 426.251 173.296 417.737L175.212 406.573" fill="#DBD7FA"/>
<path d="M205.17 412.309L203.733 458.88C203.648 460.828 202.126 462.361 200.274 462.361H133.791C132.004 462.361 130.705 460.583 131.163 458.763L132.419 453.74C133.568 449.132 136.75 445.397 140.964 443.672L158.609 436.478C166.272 433.349 171.838 426.251 173.296 417.737L175.212 406.573" stroke="#251B9F" stroke-width="1.06424" stroke-linecap="round" stroke-linejoin="round"/>
<path d="M173.109 418.96C185.199 420.237 179.516 436.318 190.031 438.978C200.545 441.628 204.419 431.827 204.419 431.827" fill="#DBD7FA"/>
<path d="M173.109 418.96C185.199 420.237 179.516 436.318 190.031 438.978C200.545 441.628 204.419 431.827 204.419 431.827" stroke="#251B9F" stroke-width="1.06424" stroke-linecap="round" stroke-linejoin="round"/>
<path d="M132.129 455.123H203.454" stroke="#251B9F" stroke-width="1.06424" stroke-linecap="round" stroke-linejoin="round"/>
<path d="M214.469 412.309L215.905 458.88C215.991 460.828 217.512 462.361 219.364 462.361H285.847C287.635 462.361 288.933 460.583 288.476 458.763L287.22 453.74C286.071 449.132 282.888 445.397 278.674 443.672L261.029 436.478C253.367 433.349 247.801 426.251 246.343 417.737L244.427 406.573" fill="#DBD7FA"/>
<path d="M214.469 412.309L215.905 458.88C215.991 460.828 217.512 462.361 219.364 462.361H285.847C287.635 462.361 288.933 460.583 288.476 458.763L287.22 453.74C286.071 449.132 282.888 445.397 278.674 443.672L261.029 436.478C253.367 433.349 247.801 426.251 246.343 417.737L244.427 406.573" stroke="#251B9F" stroke-width="1.06424" stroke-linecap="round" stroke-linejoin="round"/>
<path d="M209.761 299.586L214.454 412.299C214.454 412.299 231.152 414.651 258.066 411.469L255.086 265.435H164.531L161.551 411.469C188.465 414.651 205.163 412.299 205.163 412.299L209.761 299.586Z" fill="#DBD7FA" stroke="#251B9F" stroke-width="1.06424" stroke-linecap="round" stroke-linejoin="round"/>
<path d="M246.521 418.96C234.431 420.237 240.114 436.318 229.599 438.978C219.085 441.628 215.211 431.827 215.211 431.827" fill="#DBD7FA"/>
<path d="M246.521 418.96C234.431 420.237 240.114 436.318 229.599 438.978C219.085 441.628 215.211 431.827 215.211 431.827" stroke="#251B9F" stroke-width="1.06424" stroke-linecap="round" stroke-linejoin="round"/>
<path d="M287.497 455.123H216.172" stroke="#251B9F" stroke-width="1.06424" stroke-linecap="round" stroke-linejoin="round"/>
<path d="M253.889 269.872C255.07 269.691 255.932 268.669 255.911 267.477C255.72 255.813 254.272 198.334 244.471 186.021C234.445 173.42 221.238 177.773 220.366 159.319H199.581C198.698 177.773 185.501 173.42 175.476 186.021C165.483 198.589 163.94 255.76 163.727 267.456C163.706 268.659 164.578 269.68 165.77 269.861C195.494 274.203 224.878 274.416 253.889 269.883V269.872Z" fill="#DBD7FA" stroke="#251B9F" stroke-width="1.06424" stroke-linecap="round" stroke-linejoin="round"/>
<path d="M260.847 262.018C261.836 261.88 262.56 261.018 262.549 260.028C262.347 249.141 260.772 190.683 249.459 178.252C237.997 165.652 222.885 170.005 221.885 151.551H198.11C197.109 170.005 181.997 165.652 170.535 178.252C158.989 190.938 157.307 249.109 157.094 260.018C157.073 261.018 157.818 261.88 158.808 262.008C193.225 266.456 227.259 266.669 260.847 262.018Z" fill="#DBD7FA" stroke="#251B9F" stroke-width="1.06424" stroke-linecap="round" stroke-linejoin="round"/>
<path d="M275.258 287.666C275.258 287.666 271.842 312.409 264.317 324.191C261.976 327.852 256.325 326.298 256.25 321.956L255.676 288.092" fill="#DBD7FA"/>
<path d="M275.258 287.666C275.258 287.666 271.842 312.409 264.317 324.191C261.976 327.852 256.325 326.298 256.25 321.956L255.676 288.092" stroke="#251B9F" stroke-width="1.06424" stroke-linecap="round" stroke-linejoin="round"/>
<path d="M244.566 173.91C267.682 192.109 276.047 211.297 279.984 293.434C272.375 294.605 264.308 294.807 255.73 293.924C254.985 263.966 252.644 232.613 247.631 199.558" fill="#DBD7FA"/>
<path d="M244.566 173.91C267.682 192.109 276.047 211.297 279.984 293.434C272.375 294.605 264.308 294.807 255.73 293.924C254.985 263.966 252.644 232.613 247.631 199.558" stroke="#251B9F" stroke-width="1.06424" stroke-linecap="round" stroke-linejoin="round"/>
<path d="M256.102 314.165C256.102 316.368 260.476 318.113 262.434 314.218C263.455 312.185 263.743 308.78 264.286 303.533" stroke="#251B9F" stroke-width="1.06424" stroke-linecap="round" stroke-linejoin="round"/>
<path d="M177.781 216.213C196.352 229.164 212.582 239.221 223.82 245.852C233.473 251.545 245.648 250.651 254.332 243.563C264.921 234.922 279.118 223.3 288.387 215.521C292.687 211.732 291.027 204.421 287.547 197.929C281.927 187.446 277.064 190.554 277.064 190.554C277.064 190.554 256.705 205.634 241.114 216.787H240.688C224.395 204.698 211.486 194.321 196.15 181.838" fill="#DBD7FA"/>
<path d="M177.781 216.213C196.352 229.164 212.582 239.221 223.82 245.852C233.473 251.545 245.648 250.651 254.332 243.563C264.921 234.922 279.118 223.3 288.387 215.521C292.687 211.732 291.027 204.421 287.547 197.929C281.927 187.446 277.064 190.554 277.064 190.554C277.064 190.554 256.705 205.634 241.114 216.787H240.688C224.395 204.698 211.486 194.321 196.15 181.838" stroke="#251B9F" stroke-width="1.06424" stroke-linecap="round" stroke-linejoin="round"/>
<path d="M238.627 170.142C238.627 170.142 239.681 160.586 235.456 157.446C231.22 154.307 219.312 151.476 211.638 151.476H209.51C201.837 151.476 189.928 154.317 185.692 157.446C181.457 160.586 182.83 169.717 182.83 169.717" fill="#DBD7FA"/>
<path d="M238.627 170.142C238.627 170.142 239.681 160.586 235.456 157.446C231.22 154.307 219.312 151.476 211.638 151.476H209.51C201.837 151.476 189.928 154.317 185.692 157.446C181.457 160.586 182.83 169.717 182.83 169.717" stroke="#251B9F" stroke-width="1.06424" stroke-linecap="round" stroke-linejoin="round"/>
<path d="M238.622 170.142C232.109 176.304 221.328 179.838 215.188 181.445C212.144 182.243 208.941 182.126 205.95 181.147C200.373 179.316 190.731 175.613 182.824 169.717" fill="#DBD7FA"/>
<path d="M238.622 170.142C232.109 176.304 221.328 179.838 215.188 181.445C212.144 182.243 208.941 182.126 205.95 181.147C200.373 179.316 190.731 175.613 182.824 169.717" stroke="#251B9F" stroke-width="1.06424" stroke-linecap="round" stroke-linejoin="round"/>
<path d="M233.17 161.214C227.498 169.557 217.802 174.038 213.173 175.794C211.502 176.432 209.672 176.411 208.022 175.73C203.808 173.985 195.166 169.685 188.195 161.618" fill="#DBD7FA"/>
<path d="M233.17 161.214C227.498 169.557 217.802 174.038 213.173 175.794C211.502 176.432 209.672 176.411 208.022 175.73C203.808 173.985 195.166 169.685 188.195 161.618" stroke="#251B9F" stroke-width="1.06424" stroke-linecap="round" stroke-linejoin="round"/>
<path d="M192.496 165.737C196.625 163.087 197.36 155.755 197.36 140.11L223.774 151.551C224.146 158.468 226.509 162.183 229.915 164.79" fill="#DBD7FA"/>
<path d="M192.496 165.737C196.625 163.087 197.36 155.755 197.36 140.11L223.774 151.551C224.146 158.468 226.509 162.183 229.915 164.79" stroke="#251B9F" stroke-width="1.06424" stroke-linecap="round" stroke-linejoin="round"/>
<path d="M202.75 299.372H216.883" stroke="#251B9F" stroke-width="1.06424" stroke-linecap="round" stroke-linejoin="round"/>
<path d="M241.373 139.035C239.383 144.601 235.03 147.527 231.678 145.144C229.092 143.302 227.389 139.759 229.284 134.342C231.178 128.925 233.062 127.232 236.201 127.105C241.384 126.892 243.81 132.224 241.373 139.035Z" fill="#DBD7FA" stroke="#251B9F" stroke-width="1.06424" stroke-linecap="round" stroke-linejoin="round"/>
<path d="M180.847 139.035C182.837 144.601 187.189 147.527 190.542 145.144C193.128 143.302 194.831 139.759 192.936 134.342C191.042 128.925 189.158 127.232 186.019 127.105C180.836 126.892 178.41 132.224 180.847 139.035Z" fill="#DBD7FA" stroke="#251B9F" stroke-width="1.06424" stroke-linecap="round" stroke-linejoin="round"/>
<path d="M211.104 99.0625C228.908 99.0625 235.028 109.843 235.028 131.884C235.028 141.387 223.13 145.048 211.104 144.261C199.078 145.048 187.18 141.387 187.18 131.884C187.18 109.843 193.299 99.0625 211.104 99.0625Z" fill="#DBD7FA" stroke="#251B9F" stroke-width="1.06424" stroke-linecap="round" stroke-linejoin="round"/>
<path d="M211.104 161.053C224.651 161.053 235.028 149.091 235.028 131.882C235.028 123.73 230.217 122.751 228.93 119.164C227.876 116.216 229.781 111.215 225.737 108.628C221.544 105.947 217.713 110.672 211.104 110.672C204.505 110.672 200.664 105.947 196.47 108.628C192.426 111.215 194.331 116.216 193.278 119.164C191.99 122.751 187.18 123.73 187.18 131.882C187.18 149.08 197.556 161.042 211.104 161.042V161.053Z" fill="#DBD7FA" stroke="#251B9F" stroke-width="1.06424" stroke-linecap="round" stroke-linejoin="round"/>
<path d="M211.871 126.636C211.871 130.914 217.235 132.074 216.586 134.905C216.075 137.15 212.254 136.448 211.871 138.896" fill="#DBD7FA"/>
<path d="M211.871 126.636C211.871 130.914 217.235 132.074 216.586 134.905C216.075 137.15 212.254 136.448 211.871 138.896" stroke="#251B9F" stroke-width="1.06424" stroke-linecap="round" stroke-linejoin="round"/>
<path d="M201.771 129.255C202.7 129.255 203.453 128.502 203.453 127.573C203.453 126.644 202.7 125.892 201.771 125.892C200.842 125.892 200.09 126.644 200.09 127.573C200.09 128.502 200.842 129.255 201.771 129.255Z" fill="#251B9F"/>
<path d="M220.439 129.255C221.368 129.255 222.121 128.502 222.121 127.573C222.121 126.644 221.368 125.892 220.439 125.892C219.511 125.892 218.758 126.644 218.758 127.573C218.758 128.502 219.511 129.255 220.439 129.255Z" fill="#251B9F"/>
<path d="M206.57 144.899C208.007 145.602 209.603 145.974 211.306 145.974C212.849 145.974 214.318 145.666 215.659 145.08" fill="#DBD7FA"/>
<path d="M206.57 144.899C208.007 145.602 209.603 145.974 211.306 145.974C212.849 145.974 214.318 145.666 215.659 145.08" stroke="#251B9F" stroke-width="1.06424" stroke-linecap="round" stroke-linejoin="round"/>
<path d="M548.124 165.906C563.428 212.317 511.344 273.554 424.332 320.486" stroke="#251B9F" stroke-width="1.06424" stroke-linecap="round" stroke-linejoin="round"/>
<path d="M560 210.722C554.487 227.324 543.579 244.586 528.137 261.762" stroke="#251B9F" stroke-width="1.06424" stroke-linecap="round" stroke-linejoin="round"/>
<path d="M132.064 385.245C85.206 378.935 52.0444 361.045 42.6472 332.545C32.8562 302.842 50.6609 267.073 87.5473 232.868" stroke="#251B9F" stroke-width="1.06424" stroke-linecap="round" stroke-linejoin="round"/>
<path d="M39.3599 311.771C41.5111 311.771 43.2551 310.026 43.2551 307.876C43.2551 305.725 41.5111 303.98 39.3599 303.98C37.2087 303.98 35.4648 305.725 35.4648 307.876C35.4648 310.026 37.2087 311.771 39.3599 311.771Z" fill="white" stroke="#251B9F" stroke-width="1.06424" stroke-linecap="round" stroke-linejoin="round"/>
<path d="M550.243 185.212C552.395 185.212 554.138 183.468 554.138 181.317C554.138 179.166 552.395 177.422 550.243 177.422C548.092 177.422 546.348 179.166 546.348 181.317C546.348 183.468 548.092 185.212 550.243 185.212Z" fill="white" stroke="#251B9F" stroke-width="1.06424" stroke-linecap="round" stroke-linejoin="round"/>
<path d="M310.229 119.261L306.462 125.296L312.368 129.255L305.259 129.01L304.78 136.108L301.439 129.829L295.053 132.958L298.821 126.924L292.914 122.965L300.023 123.21L300.502 116.111L303.844 122.401L310.229 119.261Z" fill="#E9E7FC" stroke="#251B9F" stroke-width="1.06424" stroke-linecap="round" stroke-linejoin="round"/>
<path d="M517.031 272.682C515.382 265.743 512.37 259.549 508.081 254.281C505.399 250.982 502.292 248.183 498.844 245.874L489.723 239.797C489.691 239.776 489.67 239.765 489.638 239.744L489.532 239.669C482.88 235.327 475.005 232.879 466.48 232.624C466.267 232.624 466.054 232.613 465.842 232.613C465.544 232.613 465.246 232.613 464.948 232.613C451.283 232.613 437.469 238.105 425.954 248.13C414.194 258.368 406.191 272.15 403.414 286.943C403.371 287.166 403.328 287.39 403.286 287.624C401.892 295.488 402.051 303.119 403.765 310.313C405.414 317.252 408.426 323.446 412.715 328.714C415.546 332.194 418.845 335.131 422.527 337.504L430.999 343.145C431.062 343.187 431.137 343.23 431.201 343.283L431.392 343.411C438.012 347.689 445.834 350.116 454.316 350.371C454.529 350.371 454.742 350.382 454.955 350.382C455.253 350.382 455.55 350.382 455.848 350.382C469.513 350.382 483.327 344.89 494.842 334.865C506.602 324.627 514.605 310.845 517.383 296.052V295.989C517.436 295.786 517.468 295.584 517.51 295.371C518.904 287.507 518.734 279.876 517.031 272.682Z" fill="#251B9F" stroke="#251B9F" stroke-width="1.06424" stroke-linecap="round" stroke-linejoin="round"/>
<path d="M464.963 232.613C451.299 232.613 437.485 238.105 425.97 248.13C414.21 258.368 406.207 272.15 403.429 286.943C403.387 287.166 403.344 287.39 403.301 287.624C401.907 295.488 402.067 303.119 403.78 310.313C405.43 317.252 408.442 323.446 412.731 328.714C420.659 338.462 432.259 344.039 445.413 344.433C445.626 344.433 445.839 344.443 446.052 344.443C446.35 344.443 446.648 344.443 446.946 344.443C460.611 344.443 474.424 338.952 485.939 328.927C497.699 318.689 505.702 304.907 508.48 290.114V290.05C508.533 289.848 508.565 289.646 508.608 289.433C510.002 281.568 509.832 273.938 508.129 266.754C506.479 259.815 503.467 253.621 499.178 248.353C491.25 238.605 479.65 233.028 466.496 232.624C466.283 232.624 466.07 232.613 465.857 232.613C465.559 232.613 465.261 232.613 464.963 232.613Z" fill="#DBD7FA" stroke="#251B9F" stroke-width="1.06424" stroke-miterlimit="10"/>
<path d="M462.68 243.075C451.697 243.075 440.608 247.481 431.36 255.537C421.92 263.764 415.481 274.832 413.246 286.72C413.214 286.9 413.182 287.081 413.151 287.262C412.033 293.584 412.161 299.714 413.534 305.482C414.864 311.059 417.28 316.029 420.717 320.264C427.081 328.086 436.404 332.577 446.972 332.897C447.142 332.897 447.313 332.897 447.483 332.907C447.717 332.907 447.962 332.907 448.196 332.907C459.168 332.907 470.268 328.501 479.516 320.445C488.956 312.219 495.395 301.151 497.63 289.263C497.662 289.082 497.693 288.901 497.725 288.72C498.843 282.399 498.715 276.269 497.342 270.501C496.012 264.924 493.596 259.954 490.159 255.718C483.795 247.896 474.472 243.405 463.904 243.086C463.723 243.086 463.563 243.086 463.393 243.075C463.159 243.075 462.914 243.075 462.68 243.075Z" fill="#DBD7FA" stroke="#251B9F" stroke-width="1.06424" stroke-miterlimit="10"/>
<path d="M423.41 322.509C419.972 318.284 417.546 313.303 416.226 307.727C414.853 301.958 414.726 295.818 415.843 289.507C415.875 289.326 415.907 289.145 415.939 288.964C418.174 277.077 424.602 266.009 434.052 257.782C443.3 249.726 454.4 245.32 465.373 245.32C465.607 245.32 465.852 245.32 466.086 245.32C466.256 245.32 466.416 245.32 466.597 245.33C474.206 245.565 481.166 247.959 486.838 252.205C480.74 246.565 472.758 243.362 463.904 243.096C463.723 243.096 463.563 243.096 463.393 243.085C463.159 243.085 462.914 243.085 462.68 243.085C451.697 243.085 440.608 247.491 431.36 255.547C421.92 263.774 415.481 274.852 413.246 286.729C413.214 286.91 413.182 287.091 413.151 287.272C412.033 293.594 412.161 299.724 413.534 305.492C414.864 311.068 417.28 316.038 420.717 320.274C422.495 322.466 424.517 324.382 426.73 326.032C425.549 324.946 424.442 323.775 423.41 322.509Z" fill="#251B9F" stroke="#251B9F" stroke-width="1.06424" stroke-miterlimit="10"/>
<path d="M472.841 277.981C472.011 276.917 471.032 276.033 469.946 275.288L466.338 272.936C464.412 271.627 462.135 270.829 459.666 270.638H459.612L453.578 305.247V305.321L457.048 307.577H457.122C461.304 307.386 465.498 305.566 468.924 302.437C472.373 299.298 474.725 295.136 475.555 290.73C475.555 290.688 475.565 290.645 475.576 290.603C475.576 290.56 475.587 290.518 475.597 290.475C476.417 285.76 475.438 281.323 472.83 277.981H472.841Z" fill="#251B9F" stroke="#251B9F" stroke-width="1.06424" stroke-linecap="round" stroke-linejoin="round"/>
<path d="M462.367 254.855H462.24C462.133 254.845 462.027 254.834 461.846 254.834C461.697 254.834 461.559 254.834 461.41 254.834C453.29 254.834 445.074 258.101 438.241 264.072C431.292 270.138 426.556 278.3 424.906 287.059C424.896 287.144 424.874 287.229 424.864 287.304C424.853 287.389 424.832 287.463 424.821 287.549C424.012 292.21 424.119 296.722 425.14 300.979C426.13 305.087 427.918 308.748 430.462 311.866C432.218 314.027 434.346 315.815 436.624 317.315L440.455 319.731C444.233 321.998 448.607 323.286 453.332 323.435C453.407 323.435 453.492 323.435 453.566 323.435C453.641 323.435 453.726 323.435 453.8 323.435H453.864C453.971 323.435 454.066 323.435 454.173 323.435H454.311L457.057 307.695V307.62L453.577 305.364H453.502C453.353 305.375 453.215 305.385 453.055 305.385C452.97 305.385 452.896 305.385 452.811 305.385C450.927 305.332 449.16 304.917 447.553 304.204C447.064 303.757 446.585 303.289 446.159 302.767C443.424 299.415 442.37 294.913 443.201 290.081L443.254 289.773C444.116 285.186 446.606 280.897 450.246 277.726C453.896 274.544 458.313 272.82 462.665 272.883C462.793 272.883 462.921 272.894 463.038 272.905H463.123L465.869 257.175V257.101L462.399 254.845L462.367 254.855Z" fill="#251B9F" stroke="#251B9F" stroke-width="1.06424" stroke-linecap="round" stroke-linejoin="round"/>
<path d="M453.57 305.321V305.247L459.615 270.638H459.668C463.585 270.936 467.033 272.734 469.364 275.725C471.971 279.066 472.95 283.504 472.131 288.219C472.131 288.261 472.12 288.304 472.109 288.347C472.109 288.389 472.099 288.432 472.088 288.474C471.258 292.891 468.906 297.041 465.458 300.181C462.02 303.31 457.827 305.13 453.655 305.321H453.581H453.57Z" fill="white" stroke="#251B9F" stroke-width="1.06424" stroke-linecap="round" stroke-linejoin="round"/>
<path d="M450.362 321.189C450.362 321.189 450.319 321.189 450.298 321.189C450.223 321.189 450.138 321.189 450.064 321.189C449.989 321.189 449.904 321.189 449.83 321.189C442.04 320.955 435.154 317.645 430.45 311.877C427.906 308.759 426.119 305.098 425.129 300.99C424.107 296.733 424.001 292.221 424.81 287.559C424.82 287.474 424.841 287.389 424.852 287.315C424.863 287.229 424.884 287.144 424.895 287.07C426.544 278.322 431.28 270.159 438.23 264.082C445.062 258.112 453.278 254.845 461.398 254.845C461.547 254.845 461.685 254.845 461.834 254.845C462.015 254.845 462.132 254.855 462.228 254.866H462.356L462.345 254.941L459.599 270.681H459.514C459.397 270.659 459.269 270.649 459.142 270.649C454.789 270.574 450.383 272.309 446.722 275.491C443.072 278.673 440.592 282.951 439.73 287.538L439.677 287.847C438.847 292.668 439.9 297.169 442.635 300.532C445.094 303.555 448.702 305.279 452.778 305.407C452.863 305.407 452.937 305.407 453.022 305.407C453.182 305.407 453.32 305.407 453.469 305.396H453.544V305.47L450.798 321.2H450.66C450.553 321.2 450.458 321.2 450.351 321.2L450.362 321.189Z" fill="white" stroke="#251B9F" stroke-width="1.06424" stroke-linecap="round" stroke-linejoin="round"/>
<path d="M460.414 343.878L466.778 347.784" stroke="white" stroke-width="1.06424" stroke-linecap="round" stroke-linejoin="round"/>
<path d="M464.414 343.187L470.789 347.092" stroke="white" stroke-width="1.06424" stroke-linecap="round" stroke-linejoin="round"/>
<path d="M509.918 269.989L516.282 273.895" stroke="white" stroke-width="1.06424" stroke-linecap="round" stroke-linejoin="round"/>
<path d="M546.297 143.11L543.626 148.964C540.284 156.286 534.112 162.373 525.555 165.81C505.984 173.696 481.262 164.821 470.449 146.026C464.361 135.437 463.957 123.933 468.267 114.493L470.938 108.64C466.628 118.079 467.033 129.595 473.12 140.173C483.933 158.967 508.655 167.843 528.226 159.957C536.783 156.509 542.955 150.432 546.297 143.11Z" fill="#FF491B"/>
<path d="M546.297 143.11L543.626 148.964C540.284 156.286 534.112 162.373 525.555 165.81C505.984 173.696 481.262 164.821 470.449 146.026C464.361 135.437 463.957 123.933 468.267 114.493L470.938 108.64C466.628 118.079 467.033 129.595 473.12 140.173C483.933 158.967 508.655 167.843 528.226 159.957C536.783 156.509 542.955 150.432 546.297 143.11Z" stroke="#FF491B" stroke-width="1.06424" stroke-linecap="round" stroke-linejoin="round"/>
<path d="M488.999 91.783C508.581 83.897 533.314 92.7727 544.137 111.578C554.95 130.383 547.819 152.093 528.237 159.979C508.655 167.865 483.923 158.989 473.099 140.184C462.287 121.379 469.417 99.6689 488.999 91.783Z" fill="#FFEDE8" stroke="#FF491B" stroke-width="1.06424" stroke-linecap="round" stroke-linejoin="round"/>
<path d="M541.015 118.261C540.813 117.75 540.6 117.239 540.377 116.729C539.919 115.718 539.408 114.707 538.834 113.706C537.535 111.461 536.013 109.375 534.289 107.48C533.906 107.055 533.512 106.65 533.119 106.246C532.523 105.639 531.895 105.054 531.267 104.49C530.628 103.926 529.969 103.383 529.298 102.862C528.404 102.17 527.478 101.51 526.52 100.903C525.573 100.286 524.594 99.7115 523.594 99.1793C523.115 98.9239 522.625 98.6791 522.146 98.445C521.87 98.3173 521.593 98.1789 521.316 98.0512C519.518 97.2317 517.655 96.54 515.772 95.9972C514.963 95.7631 514.143 95.5502 513.324 95.3693C512.228 95.1246 511.121 94.9223 510.014 94.7734C509.737 94.7308 509.461 94.6989 509.184 94.6669C508.737 94.6137 508.29 94.5711 507.832 94.5392C506.268 94.4115 504.704 94.3902 503.139 94.4647C502.426 94.4967 501.713 94.5499 501 94.635C500.095 94.7308 499.191 94.8691 498.297 95.0288C497.509 95.1778 496.732 95.348 495.966 95.5502C495.689 95.6247 495.402 95.6992 495.125 95.7844C494.051 96.093 492.997 96.4548 491.954 96.8805C491.177 97.1998 490.411 97.5404 489.677 97.9022C489.432 98.0193 489.187 98.147 488.953 98.2747C486.324 99.6689 484.004 101.393 482.046 103.351C480.077 105.32 478.459 107.534 477.204 109.928C477.15 110.035 477.108 110.13 477.055 110.237C478.193 108.3 479.588 106.501 481.216 104.873C483.185 102.904 485.494 101.191 488.123 99.7966C488.357 99.6689 488.602 99.5412 488.846 99.4241C489.581 99.0623 490.336 98.7217 491.124 98.4024C492.167 97.9873 493.22 97.6149 494.295 97.3062C494.572 97.2211 494.859 97.1466 495.136 97.0721C495.913 96.8699 496.69 96.6996 497.467 96.5506C498.361 96.3803 499.265 96.2526 500.17 96.1569C500.883 96.0824 501.596 96.0292 502.309 95.9866C503.873 95.9121 505.438 95.944 507.002 96.0611C507.449 96.093 507.907 96.1356 508.354 96.1888C508.631 96.2207 508.907 96.2526 509.184 96.2952C510.291 96.4442 511.398 96.6464 512.494 96.8912C513.313 97.0721 514.133 97.285 514.941 97.5191C516.836 98.0725 518.688 98.7536 520.486 99.5731C520.763 99.7008 521.04 99.8285 521.316 99.9669C521.806 100.201 522.285 100.446 522.764 100.701C523.764 101.233 524.743 101.808 525.69 102.425C526.637 103.043 527.563 103.692 528.468 104.383C529.138 104.905 529.798 105.448 530.437 106.012C531.075 106.576 531.693 107.161 532.289 107.768C532.693 108.172 533.076 108.587 533.459 109.002C535.173 110.897 536.705 112.982 538.004 115.228C538.578 116.228 539.089 117.239 539.547 118.25C539.77 118.761 539.994 119.272 540.185 119.783C540.483 120.549 540.749 121.315 540.983 122.082C541.452 123.625 541.792 125.157 542.005 126.7C542.069 127.169 542.122 127.637 542.165 128.116C542.197 128.414 542.218 128.701 542.229 128.999C542.292 130.021 542.292 131.021 542.25 132.022C542.229 132.522 542.186 133.022 542.143 133.512C541.92 135.736 541.43 137.918 540.685 139.993C540.515 140.45 540.345 140.908 540.153 141.366C539.908 141.94 539.642 142.494 539.366 143.047C539.972 142.015 540.515 140.951 540.983 139.854C541.175 139.407 541.356 138.95 541.515 138.482C542.26 136.406 542.75 134.235 542.973 132C543.027 131.5 543.059 131.011 543.08 130.51C543.122 129.51 543.122 128.499 543.059 127.488C543.037 127.19 543.016 126.903 542.995 126.605C542.952 126.136 542.899 125.668 542.835 125.189C542.622 123.657 542.282 122.114 541.813 120.57C541.579 119.804 541.313 119.038 541.015 118.272V118.261Z" fill="#FF491B" stroke="#FF491B" stroke-width="1.06424" stroke-linecap="round" stroke-linejoin="round"/>
<path d="M495.41 119.964L496.411 117.761C497.656 115.047 499.976 112.791 503.19 111.535C503.264 111.503 503.339 111.482 503.424 111.45C503.52 111.418 503.626 111.386 503.754 111.344L502.753 113.547C502.626 113.589 502.519 113.621 502.424 113.653C502.338 113.685 502.264 113.706 502.189 113.738C498.975 114.994 496.655 117.25 495.41 119.964Z" fill="#FF491B"/>
<path d="M495.41 119.964L496.411 117.761C497.656 115.047 499.976 112.791 503.19 111.535C503.264 111.503 503.339 111.482 503.424 111.45C503.52 111.418 503.626 111.386 503.754 111.344L502.753 113.547C502.626 113.589 502.519 113.621 502.424 113.653C502.338 113.685 502.264 113.706 502.189 113.738C498.975 114.994 496.655 117.25 495.41 119.964Z" stroke="#FF491B" stroke-width="1.06424" stroke-linecap="round" stroke-linejoin="round"/>
<path d="M523.396 130.457L522.48 132.649C521.395 135.246 519.405 137.417 516.648 138.726L517.564 136.534C520.32 135.225 522.31 133.054 523.396 130.457Z" fill="#FF491B"/>
<path d="M523.396 130.457L522.48 132.649C521.395 135.246 519.405 137.417 516.648 138.726L517.564 136.534C520.32 135.225 522.31 133.054 523.396 130.457Z" stroke="#FF491B" stroke-width="1.06424" stroke-linecap="round" stroke-linejoin="round"/>
<path d="M517.499 136.011L516.509 138.193L502.887 113.588L503.876 111.406L517.499 136.011Z" fill="#FF491B" stroke="#FF491B" stroke-width="1.06424" stroke-linecap="round" stroke-linejoin="round"/>
<path d="M522.316 148.826C522.252 148.996 522.188 149.156 522.039 149.305C521.848 149.496 521.635 149.592 521.571 149.613C508.46 154.317 492.432 148.091 485.44 135.48C481.503 128.328 481.269 120.666 484.089 114.376L485.004 112.333C482.184 118.623 482.418 126.285 486.356 133.437C493.39 146.144 509.833 151.784 522.997 146.878L522.305 148.826H522.316Z" fill="#FF491B"/>
<path d="M522.316 148.826C522.252 148.996 522.188 149.156 522.039 149.305C521.848 149.496 521.635 149.592 521.571 149.613C508.46 154.317 492.432 148.091 485.44 135.48C481.503 128.328 481.269 120.666 484.089 114.376L485.004 112.333C482.184 118.623 482.418 126.285 486.356 133.437C493.39 146.144 509.833 151.784 522.997 146.878L522.305 148.826H522.316Z" stroke="#FF491B" stroke-width="1.06424" stroke-linecap="round" stroke-linejoin="round"/>
<path d="M543.03 130.5C543.072 129.499 543.072 128.488 543.008 127.477C542.987 127.179 542.966 126.892 542.945 126.594C542.902 126.126 542.849 125.658 542.785 125.179C542.572 123.646 542.232 122.103 541.763 120.56C541.529 119.794 541.263 119.027 540.965 118.261C540.763 117.75 540.55 117.239 540.327 116.729C539.869 115.718 539.358 114.707 538.783 113.706C537.485 111.461 535.963 109.375 534.239 107.48C533.856 107.055 533.462 106.65 533.068 106.246C532.472 105.639 531.845 105.054 531.217 104.49C530.589 103.926 529.918 103.383 529.248 102.862C528.354 102.17 527.428 101.51 526.47 100.903C525.523 100.286 524.544 99.7115 523.544 99.1793C523.065 98.9239 522.575 98.6791 522.096 98.445C521.819 98.3173 521.543 98.1789 521.266 98.0512C519.468 97.2317 517.605 96.54 515.721 95.9972C514.913 95.7631 514.093 95.5502 513.274 95.3693C512.177 95.1246 511.071 94.9223 509.964 94.7734C509.687 94.7308 509.41 94.6989 509.134 94.6669C508.687 94.6137 508.24 94.5711 507.782 94.5392C506.218 94.4115 504.653 94.3902 503.089 94.4647C502.376 94.4967 501.663 94.5499 500.95 94.635C500.045 94.7308 499.141 94.8691 498.247 95.0288C497.459 95.1778 496.682 95.348 495.916 95.5502C495.639 95.6247 495.352 95.6992 495.075 95.7844C494 96.093 492.947 96.4548 491.904 96.8805C491.127 97.1998 490.361 97.5404 489.626 97.9022C489.382 98.0193 489.137 98.147 488.903 98.2747C486.274 99.6689 483.954 101.393 481.996 103.351C480.027 105.32 478.409 107.534 477.153 109.928C476.93 110.364 476.707 110.801 476.504 111.248C476.302 111.695 476.111 112.142 475.93 112.599C475.578 113.515 475.27 114.44 475.014 115.398C474.951 115.632 474.887 115.877 474.833 116.111C473.971 119.698 473.833 123.508 474.472 127.35C474.684 128.627 474.982 129.914 475.376 131.202C475.536 131.713 475.706 132.224 475.887 132.735C476.079 133.277 476.302 133.82 476.526 134.363C476.728 134.842 476.941 135.321 477.175 135.789C477.537 136.545 477.941 137.3 478.367 138.056C479.229 139.556 480.197 140.983 481.251 142.323C482.304 143.664 483.454 144.941 484.678 146.123C485.295 146.719 485.923 147.283 486.572 147.836C488.849 149.762 491.34 151.423 493.979 152.785C494.607 153.104 495.235 153.423 495.873 153.711C498.449 154.881 501.131 155.786 503.876 156.393C504.43 156.52 504.973 156.627 505.526 156.723C505.803 156.776 506.079 156.818 506.356 156.861C509.123 157.297 511.922 157.436 514.7 157.255C514.976 157.233 515.253 157.212 515.53 157.191C516.913 157.063 518.297 156.861 519.648 156.584C519.936 156.52 520.212 156.457 520.5 156.393C522.117 156.01 523.703 155.509 525.257 154.881C528.641 153.519 531.589 151.667 534.058 149.454C534.25 149.284 534.431 149.113 534.622 148.932C536.102 147.538 537.389 146.006 538.496 144.367C539.465 142.93 540.284 141.419 540.944 139.833C541.135 139.386 541.316 138.929 541.476 138.46C542.221 136.385 542.71 134.214 542.934 131.979C542.987 131.479 543.019 130.989 543.04 130.489L543.03 130.5Z" stroke="#FF491B" stroke-width="1.06424" stroke-linecap="round" stroke-linejoin="round"/>
<path d="M468.871 132.169L467.168 136.021" stroke="white" stroke-width="1.06424" stroke-linecap="round" stroke-linejoin="round"/>
<path d="M469.555 134.372L467.863 138.235" stroke="white" stroke-width="1.06424" stroke-linecap="round" stroke-linejoin="round"/>
<path d="M531.452 159.414L530.09 162.649" stroke="white" stroke-width="1.06424" stroke-linecap="round" stroke-linejoin="round"/>
<path d="M522.701 119.187C519.041 112.557 510.857 109.215 503.992 111.365L517.646 136.268C524.042 133.245 526.331 125.806 522.701 119.187Z" fill="white" stroke="#FF491B" stroke-width="1.06424" stroke-linecap="round" stroke-linejoin="round"/>
<path d="M497.562 128.957C493.763 122.092 496.477 114.291 503.639 111.482C503.714 111.45 503.788 111.429 503.863 111.397L498.605 101.904L498.51 101.744C498.233 101.191 497.626 100.861 496.977 100.967C496.871 100.988 496.764 101.02 496.668 101.052H496.637C484.004 106.586 479.343 120.794 486.313 133.373C493.22 145.782 509.014 151.955 522.168 147.591H522.21C522.21 147.591 522.338 147.527 522.359 147.517C523.019 147.251 523.221 146.442 522.902 145.782L517.623 136.247C517.559 136.278 517.485 136.31 517.4 136.342C510.248 139.12 501.372 135.821 497.541 128.935L497.562 128.957Z" fill="white" stroke="#FF491B" stroke-width="1.06424" stroke-linecap="round" stroke-linejoin="round"/>
</g>
</g>
<defs>
<clipPath id="clip0_16781_917">
<rect width="555.531" height="405.474" fill="white" transform="translate(22.2344 88.3662)"/>
</clipPath>
</defs>
</svg>
